<?xml version="1.0" encoding="utf-8"?>
<!-- Generator: Adobe Illustrator 23.0.2, SVG Export Plug-In . SVG Version: 6.00 Build 0)  -->
<svg version="1.1" id="img-nso-logo_pc.svg" xmlns="http://www.w3.org/2000/svg" xmlns:xlink="http://www.w3.org/1999/xlink"
	 x="0px" y="0px" viewBox="0 0 357 127.8" style="enable-background:new 0 0 357 127.8;" xml:space="preserve">
<style type="text/css">
	.st0{fill-rule:evenodd;clip-rule:evenodd;fill:#FFFFFF;}
	.st1{fill:#FFFFFF;}
</style>
<path id="img-nso-logo.svg" class="st0" d="M10.1,54.2c0,3.4,2.7,6.1,6.1,6.2c3.4,0,6.1-2.7,6.2-6.1c0-3.4-2.7-6.1-6.1-6.2
	c0,0,0,0,0,0C12.9,48.1,10.2,50.8,10.1,54.2C10.1,54.2,10.1,54.2,10.1,54.2z M31,34.8H16.7C7.5,34.7,0,42.2,0,51.4c0,0,0,0,0,0v31.5
	c0,9.2,7.5,16.6,16.7,16.6c0,0,0,0,0,0H31c0.3,0,0.5-0.2,0.5-0.5V35.3C31.4,35,31.2,34.8,31,34.8z M26.2,94.3h-9.5
	c-3,0-6-1.2-8.1-3.3c-2.2-2.1-3.4-5-3.4-8.1V51.4c0-3,1.2-5.9,3.4-8.1c2.2-2.1,5.1-3.3,8.1-3.3h9.5L26.2,94.3L26.2,94.3z M48.5,34.8
	H38.4c-0.2,0-0.4,0.2-0.4,0.4c0,0,0,0,0,0V99c0,0.3,0.2,0.5,0.5,0.5h10c9.2,0,16.7-7.4,16.7-16.6c0,0,0,0,0,0V51.4
	C65.1,42.2,57.7,34.7,48.5,34.8C48.5,34.8,48.5,34.8,48.5,34.8L48.5,34.8z M50.9,76.9c-3.6,0-6.5-3-6.5-6.6s3-6.5,6.6-6.5
	c3.6,0,6.5,3,6.5,6.5C57.4,74,54.5,76.9,50.9,76.9z M182.7,92V46.4h-9.7v29.4l-22.9-29.4h-9.2V92h9.3V61.6L174.5,92H182.7L182.7,92z
	 M104.9,44.9c-13.7,0-24.8,10.9-24.8,24.3s11.1,24.3,24.8,24.3s24.8-10.9,24.8-24.3S118.6,44.9,104.9,44.9L104.9,44.9z M104.9,84.2
	c-8.3,0.2-15.2-6.3-15.4-14.6s6.3-15.2,14.6-15.4s15.2,6.3,15.4,14.6c0,0.1,0,0.3,0,0.4C119.6,77.3,113,84.1,104.9,84.2z
	 M205.9,46.4H196V92h35v-8.9h-25.2V46.4z M250.5,46.4h-9.9V92h9.9V46.4z M357,55.3v-8.9h-37.9V92H357v-8.9h-28V72.8h26.7v-8.4H329
	v-9.1H357z M295.9,75.8l-22.9-29.4h-9.2V92h9.3V61.6L297.5,92h8.1V46.4h-9.7L295.9,75.8L295.9,75.8z M70.2,114.6
	c-0.8,0-1.5,0.6-1.5,1.5c0,0,0,0,0,0c0.1,0.8,0.8,1.5,1.6,1.4c0.7-0.1,1.3-0.6,1.4-1.4C71.7,115.3,71.1,114.6,70.2,114.6
	C70.2,114.6,70.2,114.6,70.2,114.6L70.2,114.6z M93.3,125.7c-0.7,0-1.3-0.5-1.3-1.2c0-0.1,0-0.2,0-0.3V121h3.2V119H92v-2.6h-2.3v2.6
	h-1.7v2.1h1.7v3.3c0,2.2,1.1,3.4,3.3,3.4c1,0,2-0.3,2.9-0.9l-0.9-1.8C94.4,125.4,93.8,125.6,93.3,125.7L93.3,125.7z M103.2,118.7
	c-2.5,0.1-4.5,2.2-4.4,4.7c0.1,2.5,2.1,4.4,4.5,4.4c1.4,0.1,2.7-0.4,3.7-1.3l-1.4-1.5c-0.6,0.5-1.4,0.8-2.2,0.8
	c-1.1,0.1-2.1-0.7-2.2-1.8h6.2c0-0.3,0-0.5,0-0.8C107.4,120.6,105.7,118.7,103.2,118.7L103.2,118.7z M101.2,122.5
	c0.1-1.1,1.1-1.8,2.1-1.7c0.9,0.1,1.6,0.8,1.7,1.7H101.2z M80.9,118.7c-1-0.1-2,0.4-2.6,1.2v-1H76v8.7h2.3v-4.7
	c-0.1-1,0.6-1.9,1.6-2c0.1,0,0.2,0,0.2,0c0.9,0,1.7,0.7,1.7,1.6c0,0.1,0,0.2,0,0.3v4.8h2.3v-5.5c0.1-1.8-1.3-3.3-3.1-3.4
	C81.1,118.7,81,118.7,80.9,118.7L80.9,118.7z M69.1,127.6h2.3V119h-2.3V127.6z M116.3,118.7c-1-0.1-2,0.4-2.6,1.2v-1h-2.3v8.7h2.3
	v-4.7c-0.1-1,0.6-1.9,1.6-2c0.1,0,0.2,0,0.2,0c0.9,0,1.7,0.7,1.7,1.6c0,0.1,0,0.2,0,0.3v4.8h2.3v-5.5c0.1-1.8-1.3-3.3-3.1-3.4
	C116.5,118.7,116.4,118.7,116.3,118.7L116.3,118.7z M61.8,123.4l-6.4-8.3H53v12.5h2.5l0-8.3l6.4,8.3h2.4v-12.5h-2.5L61.8,123.4
	L61.8,123.4z M261.3,118.7c-1-0.1-2,0.4-2.6,1.2v-1h-2.3v8.7h2.3v-4.7c-0.1-1,0.6-1.9,1.6-2c0.1,0,0.2,0,0.2,0
	c0.9,0,1.7,0.7,1.7,1.6c0,0.1,0,0.2,0,0.3v4.8h2.3v-5.5c0.1-1.8-1.3-3.3-3.1-3.4C261.5,118.7,261.4,118.7,261.3,118.7L261.3,118.7z
	 M269.2,127.6h2.3v-12.8h-2.3V127.6z M245.6,114.9c-3.6,0.1-6.4,3-6.3,6.6c0.1,3.6,3,6.4,6.6,6.3c3.5-0.1,6.3-3,6.3-6.5
	c0.1-3.5-2.7-6.4-6.1-6.5C245.9,114.9,245.8,114.9,245.6,114.9L245.6,114.9z M245.6,125.4c-2.3,0.1-4.1-1.7-4.2-4
	c-0.1-2.3,1.7-4.1,4-4.2c2.3-0.1,4.1,1.7,4.2,4c0,0,0,0.1,0,0.1c0.1,2.1-1.5,4-3.7,4.1C245.8,125.5,245.7,125.5,245.6,125.4
	L245.6,125.4z M276.2,127.6h2.3V119h-2.3V127.6z M277.3,114.6c-0.8,0-1.5,0.6-1.5,1.5c0,0,0,0,0,0c0.1,0.8,0.8,1.5,1.6,1.4
	c0.7-0.1,1.3-0.6,1.4-1.4C278.8,115.3,278.2,114.6,277.3,114.6C277.4,114.6,277.3,114.6,277.3,114.6L277.3,114.6z M223.8,118.7
	c-1-0.1-1.9,0.4-2.5,1.2v-5.1H219v12.9h2.3v-4.7c-0.1-1,0.6-1.9,1.6-2c0.1,0,0.2,0,0.2,0c0.9,0,1.7,0.7,1.7,1.6c0,0.1,0,0.2,0,0.3
	v4.8h2.3v-5.5c0.1-1.8-1.3-3.3-3.1-3.4C224,118.7,223.9,118.7,223.8,118.7L223.8,118.7z M299.8,118.7c-2.5,0.1-4.5,2.2-4.4,4.7
	c0.1,2.5,2.1,4.4,4.5,4.4c1.4,0.1,2.7-0.4,3.7-1.3l-1.4-1.5c-0.6,0.5-1.4,0.8-2.2,0.8c-1.1,0.1-2.1-0.7-2.2-1.8h6.2
	c0-0.3,0-0.5,0-0.8C304,120.6,302.3,118.7,299.8,118.7L299.8,118.7z M297.8,122.5c0.1-1.1,1.1-1.8,2.1-1.7c0.9,0.1,1.6,0.8,1.7,1.7
	H297.8z M288,118.7c-1-0.1-2,0.4-2.6,1.2v-1h-2.3v8.7h2.3v-4.7c-0.1-1,0.6-1.9,1.6-2c0.1,0,0.2,0,0.2,0c0.9,0,1.7,0.7,1.7,1.6
	c0,0.1,0,0.2,0,0.3v4.8h2.3v-5.5c0.1-1.8-1.3-3.3-3.1-3.4C288.2,118.7,288.1,118.7,288,118.7L288,118.7z M211.6,125.7
	c-1.3-0.1-2.3-1.3-2.2-2.6c0.1-1.2,1-2.1,2.2-2.2c0.7,0,1.4,0.3,1.9,0.9l1.7-1.4c-0.8-1.1-2.1-1.7-3.5-1.6c-2.5-0.1-4.6,1.9-4.6,4.5
	c-0.1,2.5,1.9,4.6,4.5,4.6c0.1,0,0.1,0,0.2,0c1.4,0,2.7-0.6,3.5-1.6l-1.7-1.4C213,125.3,212.3,125.7,211.6,125.7L211.6,125.7z
	 M130.5,119.9c-0.6-0.8-1.6-1.2-2.6-1.1c-2.5,0.2-4.4,2.4-4.2,4.9c0.2,2.2,2,4,4.2,4.2c1,0,2-0.4,2.6-1.2v1h2.3v-12.8h-2.3V119.9
	L130.5,119.9z M128.4,125.7c-1.3,0.1-2.4-0.9-2.5-2.2c-0.1-1.3,0.9-2.4,2.2-2.5c1.3-0.1,2.4,0.9,2.5,2.2c0,0,0,0.1,0,0.1
	c0.1,1.2-0.8,2.3-2.1,2.4C128.5,125.7,128.4,125.7,128.4,125.7L128.4,125.7z M164.1,120.3l-0.7-0.1c-1.5-0.2-2.6-0.5-2.6-1.4
	c0-0.9,1-1.5,2.4-1.5c1.3,0,2.5,0.4,3.6,1.1l1.2-2c-1.4-0.9-3.1-1.4-4.8-1.3c-2.7,0-5,1.4-5,4c0,2.3,1.6,3.2,3.8,3.6l0.8,0.1
	c1.8,0.3,2.7,0.6,2.7,1.5c0,1-1.1,1.5-2.5,1.5c-1.4,0-2.9-0.5-4-1.3l-1.3,2c1.5,1.1,3.4,1.7,5.3,1.6c2.7,0,5.1-1.3,5.1-4.1
	C168.1,121.6,166.4,120.6,164.1,120.3L164.1,120.3z M141.6,118.7c-2.5,0.1-4.5,2.2-4.4,4.7c0.1,2.5,2.2,4.5,4.7,4.4
	c2.4-0.1,4.4-2.1,4.4-4.5c0-2.5-2-4.5-4.4-4.6C141.8,118.7,141.7,118.7,141.6,118.7L141.6,118.7z M141.6,125.7c-1.3,0-2.4-1-2.4-2.3
	c0-1.3,1-2.4,2.3-2.4c1.3,0,2.4,1,2.4,2.3c0,0,0,0,0,0.1c0.1,1.2-0.9,2.3-2.1,2.4C141.7,125.7,141.6,125.7,141.6,125.7L141.6,125.7z
	 M182.1,125l-2-6.1h-2.5l-2,6l-1.9-6h-2.5l2.9,8.7h2.7l1.9-5.8l1.9,5.8h2.7l2.9-8.7H184L182.1,125z M201.5,125.7
	c-0.7,0-1.3-0.5-1.3-1.2c0-0.1,0-0.2,0-0.3V121h3.2V119h-3.2v-2.6h-2.3v2.6h-1.7v2.1h1.7v3.3c0,2.2,1.1,3.4,3.3,3.4
	c1,0,2-0.3,2.9-0.9l-0.9-1.8C202.6,125.4,202.1,125.6,201.5,125.7L201.5,125.7z M190.1,127.6h2.3V119h-2.3L190.1,127.6L190.1,127.6z
	 M191.2,114.6c-0.8,0-1.5,0.6-1.5,1.5c0,0,0,0,0,0c0.1,0.8,0.8,1.5,1.6,1.4c0.7-0.1,1.3-0.6,1.4-1.4
	C192.7,115.3,192.1,114.6,191.2,114.6C191.2,114.6,191.2,114.6,191.2,114.6L191.2,114.6z"/>
<g>
	<path class="st1" d="M92.9,12.3H82.7V1.1h8.7v2.8H86v5.7h6.9V7.8h-3.8V5h3.8V1.1h3.3v17.2h-3.3V12.3z M105.9,7.5h14.3v2.5h-14.3
		V7.5z M113.1,4.2l-4.6,3l-1.8-2l2.5-1.5h-2.5V1.1h12.7v2.5H117l2.5,1.6l-1.8,2L113.1,4.2z M107.2,13.4h8.6v-0.6h-8.6v-2h11.9v4.7
		h-8.6v0.6h8.6v2.2h-11.9V13.4z M136.1,6.4h-1.5v3.2h-3.3V3.8h-5.4V1.1h8.7v2.6h1.5V1.1h3.3v8.5h-3.3V6.4z M128.2,10.5h3.3v1.1h4.5
		v-1.1h3.3v7.8h-11.1L128.2,10.5L128.2,10.5z M131.5,14.2v1.4h4.5v-1.4H131.5z M153.7,6.6h-1.1v5.6h-3.1V3.8h-4.6V1.1h7.7v2.8h1.1
		V1.1h2.7v17.2h-2.7V6.6z M157.2,1.1h2.7v17.2h-2.7V1.1z M164.5,17.7l1-2.1h-1v-2.9h3.7v2.5l-1.3,2.5
		C167,17.7,164.5,17.7,164.5,17.7z M187.7,12.3h-10.2V1.1h8.7v2.8h-5.4v5.7h6.9V7.8h-3.8V5h3.8V1.1h3.3v17.2h-3.3L187.7,12.3
		L187.7,12.3z M211.3,11.2h-10.2V8.4h1V3.8h-1V1.1h9.3v1h0.9v-1h3.3v12.3h-3.3L211.3,11.2L211.3,11.2z M202.9,12.6h3.3v3h8.6v2.8
		h-11.9V12.6z M205.3,3.8v4.6h0.9V3.8H205.3z M210.1,7.7V5.2h1.2V4.5h-1.2V3.8h-0.7v4.6h1.9V7.7H210.1z M231,12.3h-10.2v-7h5.4V3.8
		h-5.4V1.1h8.7V8h-5.4v1.6h6.9V1.1h3.3v17.2h-3.3L231,12.3L231,12.3z M244.8,12.1c-4.1,0-6.4-4.3-3.9-7.5h-1.3V1.8h3.4V0.7h3.5v1.1
		h3.4v2.7h-1.2C251.2,7.7,248.9,12.1,244.8,12.1z M244.8,9c2.3,0,2.3-3.3,0-3.3C242.4,5.7,242.5,9,244.8,9z M254.1,18.3h-3.3V1.1
		h3.3v3h1.6v2.7h-1.6V18.3z M268.2,6.6h-1.1v5.6H264V3.8h-4.6V1.1h7.7v2.8h1.1V1.1h2.7v17.2h-2.7V6.6z M271.6,1.1h2.7v17.2h-2.7V1.1
		z"/>
</g>
</svg>
