<svg xmlns="http://www.w3.org/2000/svg" width="17" height="18" fill="none" viewBox="0 0 17 18">
    <path stroke="#000" stroke-linecap="round" stroke-linejoin="round" stroke-miterlimit="10" stroke-width="1.2" d="M1.125 2.25h2.291l2.667 8.5h7.905l1.655-6.418H4.125"/>
    <path fill="#000" stroke="#000" stroke-width="1.2" d="M7.19 15c0 .29-.235.525-.525.525-.29 0-.525-.235-.525-.525 0-.29.235-.525.525-.525.29 0 .525.235.525.525zM13.565 15c0 .29-.235.525-.525.525-.29 0-.525-.235-.525-.525 0-.29.235-.525.525-.525.29 0 .525.235.525.525z"/>
    <path stroke="#000" stroke-linecap="round" stroke-linejoin="round" stroke-miterlimit="10" stroke-width="1.2" d="M13.565 13H6.832l-.775-2.364"/>
</svg>
