<svg width="18" height="18" viewBox="0 0 18 18" fill="none" xmlns="http://www.w3.org/2000/svg">
<path d="M6.84375 12.0062L5.14375 4.99375H6.525L7.1625 8.18125C7.375 9.03125 7.48125 9.88125 7.5875 10.625C7.69375 9.88125 7.90625 9.03125 8.11875 8.18125L8.8625 4.99375H10.2437L10.9875 8.18125C11.2 9.03125 11.3063 9.775 11.4125 10.5187C11.5188 9.775 11.7312 8.925 11.8375 8.075L12.5812 4.8875H13.8563L11.9437 11.9H10.6688L9.925 8.7125C9.7125 7.8625 9.60625 7.225 9.5 6.48125C9.39375 7.225 9.2875 7.8625 9.075 8.7125L8.225 12.0062H6.84375Z" fill="#006CE1"/>
<path d="M1 8.5H4.1875" stroke="#006CE1" stroke-miterlimit="10"/>
<path d="M14.8125 8.5H17.4688" stroke="#006CE1" stroke-miterlimit="10"/>
<path d="M9.5 16.5C5.10114 16.5 1.5 12.8989 1.5 8.5C1.5 4.10114 5.10114 0.5 9.5 0.5C13.8989 0.5 17.5 4.10114 17.5 8.5C17.5 12.8989 13.8989 16.5 9.5 16.5Z" stroke="#006CE1" stroke-miterlimit="10"/>
</svg>
