<svg width="18" height="18" viewBox="0 0 18 18" fill="none" xmlns="http://www.w3.org/2000/svg">
<path d="M6.2 5.99999L5.2 6.49999L5 5.49999L6.4 4.89999H7.4V10.1H6.2V5.99999Z" fill="#006CE1"/>
<path d="M9 8.69999C9 8.09999 9.4 7.69999 10 7.39999C9.5 7.19999 9.2 6.69999 9.2 6.29999C9.2 5.39999 10 4.79999 11 4.79999C12.2 4.79999 12.7 5.49999 12.7 6.09999C12.7 6.49999 12.5 6.99999 11.9 7.19999C12.4 7.39999 12.9 7.79999 12.9 8.49999C12.9 9.39999 12.1 10.1 10.9 10.1C9.7 10.2 9 9.39999 9 8.69999ZM11.7 8.69999C11.7 8.19999 11.4 7.99999 10.9 7.79999C10.5 7.89999 10.3 8.19999 10.3 8.59999C10.3 8.99999 10.6 9.29999 11 9.29999C11.5 9.29999 11.7 9.09999 11.7 8.69999ZM10.4 6.19999C10.4 6.59999 10.7 6.79999 11.1 6.89999C11.4 6.79999 11.6 6.59999 11.6 6.19999C11.6 5.89999 11.4 5.59999 11 5.59999C10.6 5.59999 10.4 5.89999 10.4 6.19999Z" fill="#006CE1"/>
<path d="M16.8 12.5H1.2C0.8 12.5 0.5 12.2 0.5 11.9V3.1C0.5 2.7 0.8 2.5 1.2 2.5H16.8C17.2 2.5 17.5 2.8 17.5 3.1V11.8C17.5 12.2 17.2 12.5 16.8 12.5Z" stroke="#006CE1" stroke-miterlimit="10"/>
<path d="M14 16.5H4" stroke="#006CE1"/>
<path d="M10 12.5H8V16.5H10V12.5Z" fill="#006CE1"/>
</svg>
