<svg width="18" height="18" viewBox="0 0 18 18" fill="none" xmlns="http://www.w3.org/2000/svg">
<path d="M14.696 3.38206C13.9729 2.64953 13.1313 2.0705 12.1914 1.66114C11.2205 1.23967 10.1863 1.01748 9.11985 1.00132H9.1185H9.08753C8.99192 0.999975 8.89497 1.00132 8.80205 1.00401L8.75762 1.00536C7.66958 1.05249 6.52096 1.43223 5.60798 2.04761C5.12321 2.37483 4.7152 2.75725 4.39471 3.18412C4.05134 3.6433 3.81838 4.14557 3.70258 4.67612C3.69719 4.70036 3.67564 4.70305 3.66891 4.70305C3.66083 4.70305 3.64198 4.70036 3.63794 4.67747C3.52887 4.155 3.55311 3.59617 3.70796 3.10467L3.75509 2.95655L3.63929 3.06023C3.18414 3.47094 2.77613 3.93416 2.42468 4.43913C2.23481 4.73672 2.08803 5.0397 1.98839 5.33998C1.65309 6.34857 1.83757 7.46757 2.45565 8.19068C2.87039 8.67545 3.45615 8.95688 4.02171 9.22889C4.29507 9.36085 4.5792 9.49686 4.8337 9.65306C5.74129 10.2078 6.31762 10.8488 6.59367 11.6123C6.91146 12.4903 6.87915 13.5393 6.50749 14.49C6.49806 14.5142 6.47787 14.5115 6.46979 14.5102C6.46305 14.5088 6.44151 14.5021 6.44285 14.4751C6.48325 13.8005 6.33378 13.1461 6.01195 12.5805C5.68069 12.0001 5.18111 11.5437 4.56573 11.2582C4.23717 11.106 3.88706 10.9983 3.54772 10.8946C3.20434 10.7896 2.8475 10.6805 2.51759 10.5243C2.20788 10.3789 1.18987 9.83754 1.08349 9.01344L1 9.01613C1.00404 11.001 1.73927 12.9023 3.07238 14.3715C4.39471 15.8298 6.19643 16.7468 8.14627 16.9542C8.4304 16.9838 8.71857 17 9 17C10.08 17 11.1276 16.7886 12.1146 16.3711C13.0667 15.9685 13.9231 15.3908 14.657 14.6569C15.3922 13.9217 15.9685 13.0666 16.3712 12.1133C16.7886 11.1276 17 10.0799 17 8.99863C17 6.88316 16.1813 4.88888 14.696 3.38206ZM11.8547 15.9496C12.8808 14.9384 13.445 13.5043 13.445 11.9059C13.445 10.838 13.1623 9.87794 12.6034 9.0498C12.0163 8.17991 11.273 7.67898 10.7532 7.41371C10.4381 7.25212 10.1082 7.10265 9.79044 6.95722C9.04982 6.61923 8.29305 6.27585 7.7625 5.81398C7.20098 5.32517 6.95051 4.77577 6.95051 4.03246C6.95051 3.32955 7.1902 2.67915 7.62649 2.20247C7.65208 2.17553 7.67766 2.14726 7.7046 2.12167L7.74634 2.08127C7.76654 2.06242 7.78674 2.04357 7.80828 2.02606C7.8204 2.01529 7.83387 2.00452 7.84733 1.9924C7.86618 1.97759 7.87965 1.96547 7.89312 1.9547L7.93486 1.92238C7.95102 1.91026 7.96583 1.89949 7.9793 1.88871C7.99546 1.87659 8.01027 1.86717 8.02508 1.8564C8.03989 1.84697 8.0547 1.8362 8.06952 1.82677C8.09376 1.81061 8.11665 1.79715 8.13954 1.78368C8.15435 1.77426 8.16782 1.76618 8.18263 1.7581L8.20956 1.74328C8.23649 1.72847 8.25938 1.71635 8.28093 1.70558C8.32267 1.68403 8.36307 1.66653 8.40212 1.64902C8.44791 1.62883 8.49369 1.61132 8.54082 1.59516C8.60276 1.57362 8.66605 1.55476 8.72799 1.53995L8.78455 1.52649C8.79801 1.52379 8.81013 1.5211 8.8236 1.51841C8.86804 1.51033 8.91113 1.50359 8.95287 1.49821L9.03905 1.49013L9.07137 1.48743C9.09022 1.48609 9.10638 1.48609 9.12389 1.48474C10.123 1.5009 11.0899 1.70962 11.9988 2.10551C12.8808 2.48929 13.6726 3.0333 14.3499 3.7214C15.745 5.1353 16.5139 7.00839 16.5139 8.99459C16.5139 10.0086 16.3159 10.9929 15.9241 11.918C15.5457 12.8121 15.0044 13.6147 14.3136 14.3055C13.6228 14.9963 12.8202 15.5376 11.9261 15.9146C11.9005 15.9308 11.8776 15.9402 11.8547 15.9496Z" fill="#006CE1"/>
</svg>
