<svg width="18" height="18" viewBox="0 0 18 18" fill="none" xmlns="http://www.w3.org/2000/svg">
<g clip-path="url(#clip0_2455_13527)">
<path d="M15.5 12.5H2.50002L2.50001 16.5H15.5L15.5 12.5Z" stroke="#006CE1" stroke-miterlimit="10"/>
<path d="M13.5 7.50005H4.5L4.50005 12.5H13.5L13.5 7.50005Z" stroke="#006CE1" stroke-miterlimit="10"/>
<path d="M6.9 9.00005H6V10H6.9V9.00005Z" fill="#006CE1"/>
<path d="M11.9 9.00005H11V10H11.9V9.00005Z" fill="#006CE1"/>
<mask id="mask0_2455_13527" style="mask-type:alpha" maskUnits="userSpaceOnUse" x="2" y="0" width="14" height="8">
<path d="M11 7.7H6.8L2.5 0.199997H15.6L11 7.7Z" fill="white"/>
</mask>
<g mask="url(#mask0_2455_13527)">
<path d="M9.1 14.2C11.9167 14.2 14.2 11.9167 14.2 9.1C14.2 6.28335 11.9167 4 9.1 4C6.28335 4 4 6.28335 4 9.1C4 11.9167 6.28335 14.2 9.1 14.2Z" stroke="#006CE1" stroke-miterlimit="10" stroke-linecap="round"/>
<path d="M9.1 16.7C13.2974 16.7 16.7 13.2974 16.7 9.1C16.7 4.90264 13.2974 1.5 9.1 1.5C4.90264 1.5 1.5 4.90264 1.5 9.1C1.5 13.2974 4.90264 16.7 9.1 16.7Z" stroke="#006CE1" stroke-miterlimit="10" stroke-linecap="round"/>
</g>
</g>
<defs>
<clipPath id="clip0_2455_13527">
<rect width="16.2" height="16.2" fill="white" transform="translate(1 1)"/>
</clipPath>
</defs>
</svg>
