<svg width="18" height="18" viewBox="0 0 18 18" fill="none" xmlns="http://www.w3.org/2000/svg">
<mask id="mask0_2455_13515" style="mask-type:alpha" maskUnits="userSpaceOnUse" x="2" y="7" width="13" height="7">
<path d="M14.0149 7.5L10.6499 13.4H6.92413L3.63928 7.5H14.0149Z" fill="white" stroke="#666666"/>
</mask>
<g mask="url(#mask0_2455_13515)">
<path d="M8.78528 19.4C10.6999 19.4 12.2521 17.7435 12.2521 15.7C12.2521 13.6565 10.6999 12 8.78528 12C6.87061 12 5.31846 13.6565 5.31846 15.7C5.31846 17.7435 6.87061 19.4 8.78528 19.4Z" stroke="#006CE1" stroke-miterlimit="10" stroke-linecap="round"/>
<path d="M8.78526 21.4C11.7349 21.4 14.126 18.848 14.126 15.7C14.126 12.552 11.7349 10 8.78526 10C5.83564 10 3.44449 12.552 3.44449 15.7C3.44449 18.848 5.83564 21.4 8.78526 21.4Z" stroke="#006CE1" stroke-miterlimit="10" stroke-linecap="round"/>
<path d="M8.78525 23.4C12.7698 23.4 16 19.9526 16 15.7C16 11.4474 12.7698 8 8.78525 8C4.80067 8 1.57053 11.4474 1.57053 15.7C1.57053 19.9526 4.80067 23.4 8.78525 23.4Z" stroke="#006CE1" stroke-miterlimit="10" stroke-linecap="round"/>
</g>
<path d="M14.2 1H3.69995C2.69995 1 1.99995 1.8 1.99995 2.7L1.90005 16.3C1.90005 17.2 2.70005 18 3.60005 18H14.2001C15.1 18 15.9001 17.2 15.9001 16.3L16 2.7C15.9 1.8 15.2 1 14.2 1ZM14.1001 17H3.60005C3.20005 17 2.90005 16.7 2.90005 16.3L2.80005 4.8C3.00005 4.9 3.30005 5 3.50005 5H14.1001C14.4001 5 14.6001 4.9 14.8001 4.8L14.9001 16.3C14.8 16.7 14.5001 17 14.1001 17ZM14.0001 3.9H3.50005C3.10005 3.9 2.99995 3.1 2.99995 2.7C2.99995 2.3 3.29995 2 3.69995 2H14.3C14.7 2 15 2.3 15 2.7C14.9 3.1 14.4001 3.9 14.0001 3.9Z" fill="#006CE1"/>
</svg>
