<svg width="18" height="18" viewBox="0 0 18 18" fill="none" xmlns="http://www.w3.org/2000/svg">
<path d="M16.8 12.5H1.2C0.8 12.5 0.5 12.2 0.5 11.9V3.1C0.5 2.7 0.8 2.5 1.2 2.5H16.8C17.2 2.5 17.5 2.8 17.5 3.1V11.8C17.5 12.2 17.2 12.5 16.8 12.5Z" stroke="#006CE1" stroke-miterlimit="10"/>
<path d="M14 16.5H4" stroke="#006CE1"/>
<path d="M10 12.5H8V16.5H10V12.5Z" fill="#006CE1"/>
<path d="M4.8665 9.72C5.1705 9.912 5.7385 10.088 6.4105 10.088C7.7305 10.088 8.5385 9.416 8.5385 8.496C8.5385 7.816 8.0345 7.344 7.4105 7.232V7.216C8.0505 6.992 8.3625 6.56 8.3625 6.008C8.3625 5.296 7.7465 4.712 6.6345 4.712C5.9625 4.712 5.3385 4.904 5.0265 5.104L5.2745 5.984C5.4905 5.856 5.9385 5.672 6.3625 5.672C6.8745 5.672 7.1305 5.904 7.1305 6.216C7.1305 6.656 6.6105 6.808 6.2025 6.816H5.7305V7.688H6.2265C6.7625 7.688 7.2745 7.92 7.2745 8.432C7.2745 8.824 6.9545 9.128 6.3225 9.128C5.8265 9.128 5.3305 8.92 5.1145 8.808L4.8665 9.72ZM10.888 10H12.064V4.8H11.056L9.68 5.44L9.88 6.352L10.872 5.88H10.888V10Z" fill="#006CE1"/>
</svg>
