<svg width="18" height="18" viewBox="0 0 18 18" fill="none" xmlns="http://www.w3.org/2000/svg">
<path d="M16.8 12.5H1.2C0.8 12.5 0.5 12.2 0.5 11.9V3.1C0.5 2.7 0.8 2.5 1.2 2.5H16.8C17.2 2.5 17.5 2.8 17.5 3.1V11.8C17.5 12.2 17.2 12.5 16.8 12.5Z" stroke="#006CE1" stroke-miterlimit="10"/>
<path d="M14 16.5H4" stroke="#006CE1"/>
<path d="M10 12.5H8V16.5H10V12.5Z" fill="#006CE1"/>
<path d="M4.804 9.72C5.108 9.912 5.676 10.088 6.348 10.088C7.668 10.088 8.476 9.416 8.476 8.496C8.476 7.816 7.972 7.344 7.348 7.232V7.216C7.988 6.992 8.3 6.56 8.3 6.008C8.3 5.296 7.684 4.712 6.572 4.712C5.9 4.712 5.276 4.904 4.964 5.104L5.212 5.984C5.428 5.856 5.876 5.672 6.3 5.672C6.812 5.672 7.068 5.904 7.068 6.216C7.068 6.656 6.548 6.808 6.14 6.816H5.668V7.688H6.164C6.7 7.688 7.212 7.92 7.212 8.432C7.212 8.824 6.892 9.128 6.26 9.128C5.764 9.128 5.268 8.92 5.052 8.808L4.804 9.72ZM12.7455 4.8H9.8815L9.5375 7.528C9.7535 7.496 9.9535 7.48 10.2415 7.48C11.2815 7.48 11.7055 7.808 11.7055 8.344C11.7055 8.896 11.1695 9.136 10.6655 9.136C10.1935 9.136 9.7215 8.992 9.4895 8.88L9.2735 9.792C9.5615 9.944 10.0895 10.088 10.7215 10.088C12.1215 10.088 12.9535 9.232 12.9535 8.264C12.9535 7.656 12.7135 7.224 12.3215 6.96C11.9535 6.696 11.4495 6.584 10.9535 6.584C10.8255 6.584 10.7295 6.584 10.6175 6.6L10.7295 5.8H12.7455V4.8Z" fill="#006CE1"/>
</svg>
