<svg width="18" height="18" viewBox="0 0 18 18" fill="none" xmlns="http://www.w3.org/2000/svg">
<g clip-path="url(#clip0_2455_13497)">
<path d="M12.7982 17.9759C12.4499 17.8453 12.3629 17.5841 12.3629 17.2359C12.3629 15.8429 12.3629 14.4499 12.3629 13.0569C12.3629 12.5781 12.5805 12.3604 13.0594 12.3604C13.7994 12.3604 14.4959 12.3604 15.2359 12.3604C16.5419 12.4039 17.6737 13.2746 17.9349 14.5805C18.2831 16.1476 17.1948 17.7147 15.6277 17.9324C15.5842 17.9324 15.5407 17.9759 15.4971 17.9759C14.583 17.9759 13.7123 17.9759 12.7982 17.9759ZM13.4947 16.8441C14.1041 16.8441 14.7136 16.8441 15.3665 16.8441C15.7148 16.8441 16.063 16.67 16.3242 16.4088C16.8031 15.93 16.9772 15.3641 16.8031 14.7546C16.6289 14.0581 16.1501 13.6228 15.4536 13.5358C14.8006 13.4487 14.1477 13.4922 13.5382 13.4922C13.5382 13.4922 13.5382 13.4922 13.4947 13.5358C13.4947 14.624 13.4947 15.7123 13.4947 16.8441Z" fill="#006CE1"/>
<path d="M6.05082 17.976C5.70257 17.8454 5.61551 17.5842 5.61551 17.236C5.61551 15.843 5.61551 14.4064 5.61551 13.0134C5.61551 12.6652 5.78963 12.4475 6.09435 12.3605C6.31201 12.3169 6.48613 12.404 6.66026 12.5781C7.22616 13.144 7.74853 13.6664 8.31444 14.2323C8.35797 14.2758 8.4015 14.3194 8.44503 14.4064C8.53209 14.3629 8.57562 14.3194 8.61915 14.2758C9.18506 13.7099 9.70743 13.1876 10.2733 12.6217C10.4475 12.4475 10.6216 12.3605 10.8392 12.404C11.144 12.4475 11.2746 12.6652 11.2746 13.0134C11.2746 13.8405 11.2746 14.6241 11.2746 15.4512C11.2746 16.0606 11.2746 16.6701 11.2746 17.2795C11.2746 17.6277 11.1875 17.8889 10.8392 18.0195C10.7522 18.0195 10.6651 18.0195 10.5781 18.0195C10.2298 17.8889 10.1427 17.6277 10.1427 17.2795C10.1427 16.3653 10.1427 15.4512 10.1427 14.5806C10.1427 14.537 10.1427 14.45 10.1427 14.3629C9.70743 14.7982 9.31565 15.19 8.92387 15.5818C8.61915 15.8865 8.31444 15.8865 8.00972 15.5818C7.66147 15.2335 7.26969 14.8417 6.92144 14.4935C6.87791 14.45 6.83438 14.45 6.79085 14.3629C6.79085 15.3641 6.79085 16.3218 6.79085 17.2795C6.79085 17.6277 6.70379 17.8889 6.35554 18.0195C6.22494 17.976 6.13788 17.976 6.05082 17.976Z" fill="#006CE1"/>
<path d="M0 17.2794C0.217655 16.7135 0.435311 16.1041 0.652966 15.5382C1.00121 14.624 1.34946 13.7534 1.65418 12.8393C1.78477 12.5345 1.9589 12.4039 2.22009 12.4039C2.48127 12.4039 2.6554 12.5345 2.78599 12.8393C3.30836 14.2323 3.83074 15.6688 4.35311 17.0618C4.52723 17.5406 4.4837 17.7583 4.04839 17.9759C3.96133 17.9759 3.87427 17.9759 3.7872 17.9759C3.52602 17.8889 3.39542 17.7147 3.30836 17.4536C3.2213 17.2359 3.17777 17.0618 3.09071 16.8441C2.69893 16.8441 2.30715 16.8441 1.91537 16.8441C1.74124 16.8441 1.48006 16.8006 1.34946 16.8876C1.2624 16.9747 1.21887 17.2359 1.17534 17.41C1.08828 17.6712 0.957684 17.8889 0.696497 17.9759C0.609435 17.9759 0.522373 17.9759 0.435311 17.9759C0.261187 17.8889 0.0870622 17.7583 0 17.5406C0 17.4536 0 17.3665 0 17.2794ZM2.26362 14.5805C2.08949 14.9723 1.9589 15.3205 1.78477 15.7123C2.08949 15.7123 2.39421 15.7123 2.69893 15.7123C2.56833 15.3205 2.39421 14.9287 2.26362 14.5805Z" fill="#006CE1"/>
<path d="M0 17.5406C0.0870622 17.7147 0.217655 17.8888 0.435311 17.9759C0.304718 17.9759 0.174124 17.9759 0 17.9759C0 17.8453 0 17.6712 0 17.5406Z" fill="#006CE1"/>
<path d="M6.74735 3.34945C5.61554 2.26118 4.52726 1.12937 3.39545 -0.00244141C7.13913 -0.00244141 10.8828 -0.00244141 14.6265 -0.00244141C14.6265 3.74123 14.6265 7.44137 14.6265 11.2286C13.4947 10.0968 12.3629 8.96496 11.2746 7.87669C11.2746 6.39663 11.2746 4.87304 11.2746 3.39298C9.70746 3.34945 8.2274 3.34945 6.74735 3.34945Z" fill="#006CE1"/>
<path d="M11.231 7.83313C10.7087 8.92141 10.1863 10.0097 9.66393 11.098C9.6204 11.1415 9.57687 11.2286 9.4898 11.2286C7.44384 11.2286 5.44141 11.2286 3.39545 11.2286H3.35192C3.35192 11.185 3.35192 11.098 3.35192 11.0544C3.35192 9.13906 3.35192 7.22369 3.35192 5.30833C3.35192 5.22126 3.35192 5.1342 3.48251 5.09067C4.57079 4.52477 5.65907 3.95886 6.74735 3.39296C6.74735 4.87302 6.74735 6.3966 6.74735 7.87666C8.27093 7.87666 9.75099 7.87666 11.231 7.83313Z" fill="#006CE1"/>
</g>
<defs>
<clipPath id="clip0_2455_13497">
<rect width="18" height="18" fill="white"/>
</clipPath>
</defs>
</svg>
