<svg width="18" height="18" viewBox="0 0 18 18" fill="none" xmlns="http://www.w3.org/2000/svg">
<path d="M2.69269 10H3.86869V4.8H2.86069L1.48469 5.44L1.68469 6.352L2.67669 5.88H2.69269V10ZM5.63419 4.8V5.8H8.01819V5.816L5.87419 10H7.16219L9.30619 5.568V4.8H5.63419ZM10.7917 10.088C11.2237 10.088 11.5117 9.776 11.5117 9.352C11.5117 8.912 11.2237 8.608 10.7997 8.608C10.3757 8.608 10.0797 8.92 10.0797 9.352C10.0797 9.776 10.3757 10.088 10.7917 10.088ZM12.4778 10.072C12.6138 10.08 12.8218 10.088 13.0298 10.072C13.8378 10.04 14.5178 9.792 15.0138 9.344C15.5818 8.824 15.9258 8.032 15.9258 6.952C15.9258 5.736 15.2938 4.712 13.9578 4.712C12.8138 4.712 11.9978 5.568 11.9978 6.584C11.9978 7.592 12.7418 8.208 13.6218 8.208C14.0938 8.208 14.4298 8.072 14.6618 7.832L14.6858 7.84C14.5898 8.232 14.3658 8.568 14.0298 8.8C13.7498 8.992 13.3738 9.096 13.0058 9.12C12.7658 9.136 12.6298 9.136 12.4778 9.12V10.072ZM13.9258 5.6C14.4778 5.6 14.6858 6.144 14.6858 6.696C14.6858 6.848 14.6618 6.928 14.6218 7C14.5098 7.184 14.2778 7.344 13.9498 7.344C13.4538 7.344 13.2138 6.96 13.2138 6.512C13.2058 5.968 13.5098 5.6 13.9258 5.6Z" fill="#006CE1"/>
<path d="M16.8 12.5H1.2C0.8 12.5 0.5 12.2 0.5 11.9V3.1C0.5 2.7 0.8 2.5 1.2 2.5H16.8C17.2 2.5 17.5 2.8 17.5 3.1V11.8C17.5 12.2 17.2 12.5 16.8 12.5Z" stroke="#006CE1" stroke-miterlimit="10"/>
<path d="M14 16.5H4" stroke="#006CE1"/>
<path d="M10 12.5H8V16.5H10V12.5Z" fill="#006CE1"/>
</svg>
