<svg width="18" height="18" viewBox="0 0 18 18" fill="none" xmlns="http://www.w3.org/2000/svg">
<path d="M1.50002 17.5V8.5H12.5V17.5H3.00002H1.50002Z" stroke="#006CE1" stroke-miterlimit="10"/>
<path d="M7.50005 8.65173V5.5H9.50005V1.5H14.5V5.5H16.5V17.5H12.5" stroke="#006CE1" stroke-miterlimit="10"/>
<path d="M12.5001 0.5H11.5001V1.5H12.5001V0.5Z" stroke="#006CE1"/>
<path d="M11 12V10H9.00002V12H11Z" fill="#006CE1"/>
<path d="M11 15V13H9.00002V15H11Z" fill="#006CE1"/>
<path d="M8.00002 12V10H6.00002V12H8.00002Z" fill="#006CE1"/>
<path d="M8.00002 15V13H6.00002V15H8.00002Z" fill="#006CE1"/>
<path d="M5.00002 12V10H3.00002L3.00002 12H5.00002Z" fill="#006CE1"/>
<path d="M5.00002 15V13H3.00002L3.00002 15H5.00002Z" fill="#006CE1"/>
</svg>
