<svg width="18" height="18" viewBox="0 0 18 18" fill="none" xmlns="http://www.w3.org/2000/svg">
<g clip-path="url(#clip0_2455_13495)">
<path d="M14.9127 11.8398C14.9127 12.2711 14.9127 12.6592 14.9127 13.0905C14.9127 13.1336 14.8276 13.2199 14.7424 13.263C13.6357 13.8236 12.4863 14.2118 11.2518 14.5137C9.67682 14.9018 8.05924 15.0743 6.44165 15.0312C5.12204 14.9881 3.80243 14.8156 2.61052 14.2118C1.41862 13.6511 0.482121 12.8317 0.141577 11.4948C-0.198968 10.2441 0.0138725 9.12275 0.652393 8.00144C0.95037 7.48391 1.33348 7.05263 1.75916 6.62136C1.80173 6.57823 1.8443 6.5351 1.92944 6.49197C1.972 6.75074 1.92944 6.92325 1.80173 7.09576C0.992938 8.08769 0.609825 9.16588 0.694961 10.4597C0.780098 11.4516 1.29091 12.1848 2.09971 12.7455C2.7808 13.2199 3.58959 13.4786 4.39838 13.608C5.24974 13.7805 6.14367 13.8237 6.99503 13.8237C8.69776 13.7805 10.4005 13.5218 12.0181 13.0042C12.9546 12.7023 13.8485 12.4004 14.6999 11.8829C14.785 11.926 14.8276 11.8829 14.9127 11.8398Z" fill="#006CE1"/>
<path d="M3.93018 5.45679C3.88761 5.28428 3.93018 5.1549 4.10045 5.06864C5.71804 4.11984 7.42076 3.55918 9.25119 3.21416C10.4005 2.99852 11.5924 2.9554 12.7418 3.04165C13.9337 3.17103 15.083 3.38667 16.1472 4.03358C16.9986 4.55111 17.6371 5.28428 17.8925 6.31934C18.3182 8.04444 17.4243 9.72641 16.1898 10.589C15.9344 10.7615 15.6364 10.8909 15.3384 11.1065C15.3384 10.7615 15.3384 10.4596 15.3384 10.1577C15.3384 10.1146 15.4236 10.0714 15.4661 10.0283C16.1898 9.5539 16.7432 8.86386 16.9986 8.04444C17.3817 6.83687 16.8709 5.54305 15.8067 4.76675C15.0404 4.20609 14.1465 3.94733 13.2526 3.77482C12.3161 3.60231 11.337 3.60231 10.4005 3.68856C9.03835 3.77482 7.71874 4.07671 6.39913 4.50799C5.59033 4.76675 4.82411 5.06864 4.10045 5.45679C4.05788 5.41366 4.01532 5.41366 3.93018 5.45679Z" fill="#006CE1"/>
<path d="M13.0396 10.5027C12.5714 11.0202 11.9754 11.1496 11.3369 11.0634C10.443 10.934 9.93218 10.3302 9.93218 9.38138C9.93218 9.03636 9.93218 8.69134 10.0599 8.34632C10.2727 7.74253 10.741 7.39751 11.3795 7.26813C11.9329 7.18188 12.4011 7.35439 12.7842 7.78566C13.1248 8.21694 13.2099 8.73447 13.2099 9.29512C13.2099 9.42451 13.1248 9.42451 13.0396 9.42451C12.4011 9.42451 11.8052 9.42451 11.1667 9.42451C10.8261 9.42451 10.7835 9.51076 10.9112 9.81265C11.0815 10.2008 11.5923 10.4164 12.1032 10.2439C12.2734 10.2008 12.4011 10.0714 12.5714 9.98516C12.6991 10.2008 12.8694 10.3302 13.0396 10.5027ZM11.5498 8.90698C11.7626 8.90698 11.9329 8.90698 12.1457 8.90698C12.1883 8.90698 12.2734 8.82072 12.2734 8.77759C12.316 8.38945 11.9754 8.08755 11.5923 8.04443C11.2092 8.04443 10.8261 8.34632 10.8261 8.73447C10.8261 8.86385 10.8687 8.90698 10.9964 8.90698C11.1667 8.90698 11.3795 8.90698 11.5498 8.90698Z" fill="#006CE1"/>
<path d="M4.3983 9.16595C4.3983 8.64842 4.3983 8.08776 4.3983 7.57023C4.3983 7.44085 4.44086 7.39772 4.56857 7.39772C5.16452 7.39772 5.80304 7.39772 6.399 7.39772C6.90981 7.39772 7.33549 7.829 7.33549 8.34652C7.33549 9.20907 7.33549 10.0285 7.33549 10.891C7.33549 11.0204 7.29293 11.0636 7.16522 11.0636C6.99495 11.0636 6.78211 11.0636 6.61184 11.0636C6.48413 11.0636 6.44156 11.0204 6.44156 10.891C6.44156 10.1148 6.44156 9.38158 6.44156 8.60529C6.44156 8.26027 6.31386 8.13089 5.97332 8.13089C5.80304 8.13089 5.63277 8.13089 5.4625 8.13089C5.29223 8.13089 5.24966 8.21714 5.24966 8.38965C5.24966 9.20907 5.24966 10.0285 5.24966 10.8479C5.24966 11.0636 5.20709 11.1067 4.99425 11.1067C4.82398 11.1067 4.69627 11.1067 4.526 11.1067C4.35573 11.1067 4.35573 11.0636 4.35573 10.891C4.3983 10.2873 4.3983 9.7266 4.3983 9.16595Z" fill="#006CE1"/>
<path d="M8.05927 8.2601C8.05927 7.69945 8.05927 7.13879 8.05927 6.535C8.05927 6.40562 8.10183 6.31937 8.27211 6.31937C8.44238 6.31937 8.61265 6.31937 8.78292 6.31937C8.91063 6.31937 8.9532 6.36249 8.9532 6.49188C8.9532 6.70751 8.9532 6.96628 8.9532 7.18192C8.9532 7.3113 8.99576 7.35443 9.12347 7.35443C9.25117 7.35443 9.33631 7.35443 9.46401 7.35443C9.50658 7.35443 9.54915 7.35443 9.59172 7.35443C9.76199 7.52694 9.63429 7.74257 9.67685 7.91508C9.67685 7.95821 9.59172 8.04447 9.54915 8.04447C9.42145 8.04447 9.29374 8.04447 9.12347 8.04447C9.03833 8.04447 8.9532 8.08759 8.9532 8.21698C8.9532 8.77763 8.9532 9.33829 8.9532 9.89895C8.9532 10.1577 9.0809 10.244 9.33631 10.244C9.37888 10.244 9.42144 10.244 9.46401 10.244C9.63429 10.2008 9.67685 10.2871 9.67685 10.4596C9.67685 10.589 9.67685 10.6752 9.67685 10.8046C9.67685 10.9771 9.63429 11.0203 9.46401 11.0203C9.33631 11.0203 9.2086 11.0203 9.12347 11.0203C8.48495 11.0634 8.10183 10.589 8.10183 9.9852C8.05927 9.42455 8.05927 8.82076 8.05927 8.2601Z" fill="#006CE1"/>
<path d="M14.6572 10.9339C14.2315 10.977 13.7633 10.5889 13.7633 10.1576C13.7633 8.77751 13.7633 7.3543 13.7633 5.97422C13.7633 5.84484 13.8058 5.80171 13.9336 5.80171C14.1038 5.80171 14.2741 5.80171 14.4444 5.80171C14.6146 5.80171 14.6572 5.84484 14.6572 6.01735C14.6572 6.8799 14.6572 7.69932 14.6572 8.56187C14.6572 9.29504 14.6572 9.98508 14.6572 10.7182C14.6572 10.8045 14.6572 10.8908 14.6572 10.9339Z" fill="#006CE1"/>
<path d="M3.50444 9.25213C3.50444 9.76966 3.50444 10.3303 3.50444 10.8479C3.50444 11.0635 3.46187 11.1066 3.24903 11.0204C2.86592 10.891 2.61051 10.5891 2.61051 10.1578C2.61051 9.29526 2.61051 8.43271 2.61051 7.57016C2.61051 7.39765 2.65308 7.35452 2.82335 7.35452C2.99362 7.35452 3.12133 7.35452 3.2916 7.35452C3.46187 7.35452 3.50444 7.39765 3.50444 7.57016C3.50444 8.13082 3.50444 8.69148 3.50444 9.25213Z" fill="#006CE1"/>
<path d="M3.07876 5.93127C3.50444 5.93127 3.50444 5.93127 3.50444 6.36255C3.50444 6.83695 3.54701 6.7507 3.07876 6.7507C2.61051 6.7507 2.61051 6.7507 2.61051 6.31942C2.61051 5.93127 2.61051 5.93127 3.07876 5.93127Z" fill="#006CE1"/>
</g>
<defs>
<clipPath id="clip0_2455_13495">
<rect width="18" height="18" fill="white"/>
</clipPath>
</defs>
</svg>
