<svg width="18" height="18" viewBox="0 0 18 18" fill="none" xmlns="http://www.w3.org/2000/svg">
<path d="M14.5 2.5H3.5V16.5H14.5V2.5Z" stroke="#006CE1" stroke-miterlimit="10"/>
<path d="M3 13.5H14.5" stroke="#006CE1" stroke-miterlimit="10"/>
<path d="M9 11.5C10.933 11.5 12.5 9.933 12.5 8C12.5 6.067 10.933 4.5 9 4.5C7.067 4.5 5.5 6.067 5.5 8C5.5 9.933 7.067 11.5 9 11.5Z" stroke="#006CE1" stroke-miterlimit="10"/>
<path d="M9 9C9.55228 9 10 8.55228 10 8C10 7.44772 9.55228 7 9 7C8.44772 7 8 7.44772 8 8C8 8.55228 8.44772 9 9 9Z" stroke="#006CE1" stroke-miterlimit="10"/>
</svg>
