<svg width="18" height="18" viewBox="0 0 18 18" fill="none" xmlns="http://www.w3.org/2000/svg">
<g clip-path="url(#clip0_2455_13603)">
<mask id="mask0_2455_13603" style="mask-type:alpha" maskUnits="userSpaceOnUse" x="-1" y="-1" width="21" height="20">
<path d="M12.2933 9.14147L16.2652 4.28699C16.3861 4.13924 16.6124 4.14048 16.7316 4.28955L18.4573 6.44664C18.4854 6.48176 18.5053 6.52276 18.5154 6.56659L19.9556 12.8075C19.9825 12.9243 19.9373 13.0459 19.8407 13.1168L12.5792 18.4419C12.5277 18.4797 12.4656 18.5 12.4018 18.5H5.59756C5.53415 18.5 5.47238 18.4799 5.4211 18.4426L0.106157 14.5772C0.0384828 14.528 -0.00555974 14.4527 -0.0153369 14.3696L-0.983014 6.14438C-0.993741 6.0532 -0.962122 5.96212 -0.8972 5.8972L5.8689 -0.868895C5.94924 -0.949245 6.06809 -0.977302 6.1759 -0.941368L13.072 1.35734C13.2754 1.42513 13.3441 1.67817 13.2029 1.8395L10.1326 5.34843C10.0524 5.4401 10.0356 5.57119 10.0901 5.68014L11.7928 9.08566C11.8901 9.28021 12.1556 9.30981 12.2933 9.14147Z" fill="#C4C4C4"/>
</mask>
<g mask="url(#mask0_2455_13603)">
<path d="M13.1104 2.13673C11.4167 1.12238 9.40779 0.770103 7.47002 1.14767C5.53225 1.52523 3.80252 2.60596 2.61355 4.18199C1.42458 5.75801 0.860345 7.71801 1.02938 9.68496C1.19841 11.6519 2.08877 13.4869 3.5292 14.837C4.96963 16.187 6.85838 16.9568 8.83216 16.9982C10.8059 17.0397 12.7253 16.3498 14.2211 15.0614C15.7169 13.7729 16.6835 11.9769 16.9349 10.0187C17.1863 8.06061 16.7048 6.07866 15.583 4.45415L14.7304 5.04291C15.7069 6.45702 16.126 8.18227 15.9072 9.8868C15.6883 11.5913 14.847 13.1547 13.5449 14.2763C12.2428 15.3979 10.572 15.9984 8.85389 15.9623C7.13576 15.9263 5.49162 15.2562 4.23776 14.081C2.98389 12.9058 2.20884 11.3085 2.0617 9.59625C1.91456 7.88404 2.40572 6.1779 3.4407 4.80599C4.47568 3.43409 5.98138 2.49333 7.66818 2.16467C9.35497 1.83601 11.1037 2.14266 12.5781 3.02563L13.1104 2.13673Z" fill="#006CE1"/>
</g>
<path d="M2 9.5H4" stroke="#006CE1"/>
<path d="M14 9.5H16.5" stroke="#006CE1"/>
<path d="M9 2V4" stroke="#006CE1"/>
<path d="M9 14V16" stroke="#006CE1"/>
<path d="M3.5 3.5L5 5" stroke="#006CE1"/>
<path d="M13 13L14.5 14.5" stroke="#006CE1"/>
<path d="M5 13L4 14" stroke="#006CE1"/>
<path d="M7.39043 7.18765C7.21793 6.97202 6.90328 6.93706 6.68765 7.10957C6.47202 7.28207 6.43706 7.59672 6.60957 7.81235L7.39043 7.18765ZM14.8817 3.82297C15.0601 3.61217 15.0338 3.29668 14.823 3.11831C14.6122 2.93993 14.2967 2.96623 14.1183 3.17703L14.8817 3.82297ZM9.23551 9.72167L8.85382 9.3987L9.23551 9.72167ZM6.60957 7.81235L8.3818 10.0276L9.16267 9.40295L7.39043 7.18765L6.60957 7.81235ZM9.6172 10.0446L14.8817 3.82297L14.1183 3.17703L8.85382 9.3987L9.6172 10.0446ZM8.3818 10.0276C8.69644 10.4209 9.29187 10.4291 9.6172 10.0446L8.85382 9.3987C8.93515 9.30257 9.08401 9.30462 9.16267 9.40295L8.3818 10.0276Z" fill="#006CE1"/>
</g>
<defs>
<clipPath id="clip0_2455_13603">
<rect width="18" height="18" fill="white"/>
</clipPath>
</defs>
</svg>
