<svg width="18" height="18" viewBox="0 0 18 18" fill="none" xmlns="http://www.w3.org/2000/svg">
<mask id="mask0_2455_13601" style="mask-type:alpha" maskUnits="userSpaceOnUse" x="0" y="3" width="18" height="11">
<path d="M12 8.5L15 6L14 4.5L7.5 3.5L0.5 6.5V13.5H17.5L18 11L17 8.5L14 11.5L12 8.5Z" fill="#00A3E7"/>
</mask>
<g mask="url(#mask0_2455_13601)">
<path d="M17 12C17 9.87827 16.1571 7.84344 14.6569 6.34315C13.1566 4.84285 11.1217 4 9 4C6.87827 4 4.84344 4.84285 3.34315 6.34315C1.84286 7.84344 1 9.87827 1 12L2 12C2 10.1435 2.7375 8.36301 4.05025 7.05025C5.36301 5.7375 7.14349 5 9 5C10.8565 5 12.637 5.7375 13.9497 7.05025C15.2625 8.36301 16 10.1435 16 12H17Z" fill="#006CE1"/>
</g>
<path d="M9 5V7" stroke="#006CE1"/>
<path d="M15.5292 7.09661C15.6638 6.93715 15.8552 7.11557 15.9691 7.22173C16.1802 7.41849 16.1398 7.66577 16.1398 7.66577L9.57118 13.6186L8.34199 12.5281L15.5292 7.09661Z" fill="#006CE1"/>
<path d="M1 12H4V13H1V12Z" fill="#006CE1"/>
<path d="M14 12H17V13H14V12Z" fill="#006CE1"/>
<path d="M10.5 13C10.5 13.8284 9.82843 14.5 9 14.5C8.17157 14.5 7.5 13.8284 7.5 13C7.5 12.1716 8.17157 11.5 9 11.5C9.82843 11.5 10.5 12.1716 10.5 13Z" fill="#006CE1"/>
</svg>
