<svg width="18" height="18" viewBox="0 0 18 18" fill="none" xmlns="http://www.w3.org/2000/svg">
<path d="M1.85455 8.12727C1.85455 8.12727 3.49091 5.72727 6.76364 5.50909V4.63636C3.16364 4.96364 0 8.01818 0 8.01818C0 8.01818 1.74545 13.1455 6.76364 13.5818V12.7091C3.05455 12.1636 1.85455 8.12727 1.85455 8.12727ZM6.76364 10.8545V11.7273C4.03636 11.1818 3.27273 8.23636 3.27273 8.23636C3.27273 8.23636 4.58182 6.81818 6.76364 6.49091V7.47273C5.56364 7.36364 4.69091 8.45455 4.69091 8.45455C4.69091 8.45455 5.23636 10.3091 6.76364 10.8545ZM6.76364 3V4.63636C6.87273 4.63636 6.98182 4.63636 7.09091 4.63636C11.2364 4.52727 13.8545 8.01818 13.8545 8.01818C13.8545 8.01818 10.8 11.7273 7.63636 11.7273C7.30909 11.7273 6.98182 11.7273 6.76364 11.6182V12.6C6.98182 12.6 7.2 12.6 7.41818 12.6C10.3636 12.6 12.5455 11.0727 14.6182 9.21818C14.9455 9.54545 16.3636 10.2 16.6909 10.4182C14.7273 12.0545 10.0364 13.4727 7.41818 13.4727C7.2 13.4727 6.87273 13.4727 6.65455 13.4727V15H18V3H6.76364ZM6.76364 6.6V5.50909C6.87273 5.50909 6.98182 5.50909 7.09091 5.50909C10.0364 5.4 12 8.01818 12 8.01818C12 8.01818 9.92727 10.9636 7.63636 10.9636C7.30909 10.9636 6.98182 10.9636 6.76364 10.8545V7.58182C7.96364 7.69091 8.18182 8.23636 8.83636 9.43636L10.3636 8.12727C10.3636 8.12727 9.27273 6.6 7.30909 6.6C7.17969 6.6 6.98182 6.6 6.76364 6.6Z" fill="#006CE1"/>
</svg>
