<svg width="18" height="18" viewBox="0 0 18 18" fill="none" xmlns="http://www.w3.org/2000/svg">
<path d="M5 10.1V9.39999L5.7 8.79999C6.8 7.79999 7.4 7.19999 7.4 6.59999C7.4 6.19999 7.1 5.79999 6.5 5.79999C6 5.79999 5.6 5.99999 5.4 6.19999L5 5.29999C5.4 4.99999 6 4.79999 6.7 4.79999C7.9 4.79999 8.5 5.49999 8.5 6.39999C8.5 7.29999 7.9 7.99999 7.1 8.59999L6.7 9.09999H8.7V10.1H5Z" fill="#006CE1"/>
<path d="M9.6 8.89999C9.8 8.99999 10.3 9.19999 10.8 9.19999C11.4 9.19999 11.8 8.89999 11.8 8.49999C11.8 7.99999 11.3 7.79999 10.8 7.79999H10.3V6.89999H10.8C11.2 6.89999 11.7 6.69999 11.7 6.29999C11.7 5.99999 11.4 5.79999 10.9 5.79999C10.4 5.79999 10 5.99999 9.8 6.09999L9.5 5.19999C9.8 4.99999 10.4 4.79999 11.1 4.79999C12.2 4.79999 12.8 5.39999 12.8 6.09999C12.8 6.69999 12.5 7.09999 11.8 7.29999C12.5 7.39999 13 7.89999 13 8.59999C13 9.49999 12.2 10.2 10.9 10.2C10.2 10.2 9.7 9.99999 9.4 9.79999L9.6 8.89999Z" fill="#006CE1"/>
<path d="M16.8 12.5H1.2C0.8 12.5 0.5 12.2 0.5 11.9V3.1C0.5 2.7 0.8 2.5 1.2 2.5H16.8C17.2 2.5 17.5 2.8 17.5 3.1V11.8C17.5 12.2 17.2 12.5 16.8 12.5Z" stroke="#006CE1" stroke-miterlimit="10"/>
<path d="M14 16.5H4" stroke="#006CE1"/>
<path d="M10 12.5H8V16.5H10V12.5Z" fill="#006CE1"/>
</svg>
