<svg width="18" height="18" viewBox="0 0 18 18" fill="none" xmlns="http://www.w3.org/2000/svg">
<path d="M4.9 10.1V9.39999L5.6 8.79999C6.7 7.79999 7.3 7.19999 7.3 6.59999C7.3 6.19999 7 5.79999 6.4 5.79999C6 5.79999 5.6 5.99999 5.3 6.19999L5 5.29999C5.4 4.99999 6 4.79999 6.7 4.79999C7.9 4.79999 8.5 5.49999 8.5 6.39999C8.5 7.29999 7.9 7.99999 7.1 8.59999L6.6 9.09999H8.6V10.1H4.9Z" fill="#006CE1"/>
<path d="M13.1 4.89999V5.69999L11 10.1H9.7L11.8 5.89999H9.4V4.89999H13.1Z" fill="#006CE1"/>
<path d="M16.8 12.5H1.2C0.8 12.5 0.5 12.2 0.5 11.9V3.1C0.5 2.7 0.8 2.5 1.2 2.5H16.8C17.2 2.5 17.5 2.8 17.5 3.1V11.8C17.5 12.2 17.2 12.5 16.8 12.5Z" stroke="#006CE1" stroke-miterlimit="10"/>
<path d="M14 16.5H4" stroke="#006CE1"/>
<path d="M10 12.5H8V16.5H10V12.5Z" fill="#006CE1"/>
</svg>
